:FULLY-SPECIFIED
:FORCE-ALL-JOINTS-BE-3DOF
:DEGREES
204
root 4.85145 15.0429 -25.4624 7.18859 -1.37365 5.57913
lfemur 7.44016 -1.48928 0.667355
ltibia 5.79231 0 0
lfoot -35.9656 -11.6876 0
ltoes 46.8472 0 0
rfemur -31.7785 -20.048 -8.44573
rtibia 51.3109 0 0
rfoot -26.293 18.0865 0
rtoes 60.1774 0 0
lowerback -2.93835 -1.43537 -0.472051
upperback -0.68574 -1.83732 -7.6266
thorax 0.710168 -0.930712 -7.76356
lowerneck -11.3934 0.300667 6.92803
upperneck 3.85923 -0.77739 2.38818
head 3.26525 -0.162714 -0.485786
lclavicle -9.91649e-15 -6.16364e-14 0
lhumerus -59.3372 -47.0204 116.509
lradius 54.0047 0 0
lwrist 25.2348 0 0
lhand 40.6694 29.6042 0
lfingers 7.12502 0 0
lthumb 62.9473 39.8634 0
rclavicle -9.91649e-15 -6.16364e-14 0
rhumerus -2.66851 -26.8053 -14.4778
rradius 53.7583 0 0
rwrist -21.7535 0 0
rhand -38.2035 -59.8608 0
rfingers 7.12502 0 0
rthumb -11.2353 -449.536 0
205
root 4.84166 15.0372 -25.4609 7.20823 -1.55188 5.60389
lfemur 7.61238 -1.66128 0.7696
ltibia 5.62092 0 0
lfoot -36.1198 -11.811 0
ltoes 46.9263 0 0
rfemur -31.8003 -20.1109 -8.47327
rtibia 51.1865 0 0
rfoot -26.4818 18.3151 0
rtoes 60.2577 0 0
lowerback -2.96703 -1.40796 -0.463195
upperback -0.689589 -1.79999 -7.65922
thorax 0.720398 -0.912193 -7.8046
lowerneck -11.4011 0.337912 6.97602
upperneck 3.86972 -0.733908 2.37208
head 3.26809 -0.140767 -0.496968
lclavicle -1.01558e-14 -6.19231e-14 0
lhumerus -59.3988 -47.0522 116.524
lradius 54.0172 0 0
lwrist 25.2998 0 0
lhand 40.6862 29.6357 0
lfingers 7.12502 0 0
lthumb 62.9614 39.878 0
rclavicle -1.01558e-14 -6.19231e-14 0
rhumerus -2.41719 -26.8368 -14.1626
rradius 53.5536 0 0
rwrist -21.7744 0 0
rhand -38.2805 -60.065 0
rfingers 7.12502 0 0
rthumb -11.3097 -449.739 0
206
root 4.83833 15.0352 -25.4604 7.21493 -1.61263 5.61233
lfemur 7.67108 -1.71991 0.80445
ltibia 5.56251 0 0
lfoot -36.1723 -11.8531 0
ltoes 46.9532 0 0
rfemur -31.8077 -20.1323 -8.48266
rtibia 51.1441 0 0
rfoot -26.5461 18.393 0
rtoes 60.2851 0 0
lowerback -2.9768 -1.39862 -0.460177
upperback -0.690901 -1.78726 -7.67034
thorax 0.723885 -0.905881 -7.81859
lowerneck -11.4038 0.350607 6.99238
upperneck 3.87329 -0.719088 2.3666
head 3.26906 -0.133286 -0.50078
lclavicle -1.02374e-14 -6.20208e-14 0
lhumerus -59.4198 -47.063 116.529
lradius 54.0214 0 0
lwrist 25.3219 0 0
lhand 40.6919 29.6464 0
lfingers 7.12502 0 0
lthumb 62.9662 39.8829 0
rclavicle -1.02374e-14 -6.20208e-14 0
rhumerus -2.33153 -26.8475 -14.0552
rradius 53.4839 0 0
rwrist -21.7815 0 0
rhand -38.3067 -60.1346 0
rfingers 7.12502 0 0
rthumb -11.335 -449.808 0
207
root 4.84141 15.0368 -25.4608 7.21758 -1.53937 5.59349
lfemur 7.58775 -1.66995 0.778684
ltibia 5.63656 0 0
lfoot -36.1408 -11.8312 0
ltoes 46.9303 0 0
rfemur -31.7687 -20.091 -8.46184
rtibia 51.1225 0 0
rfoot -26.5634 18.3068 0
rtoes 60.2753 0 0
lowerback -2.97131 -1.40141 -0.456302
upperback -0.692076 -1.79099 -7.65089
thorax 0.720229 -0.907714 -7.80035
lowerneck -11.4009 0.340465 6.97957
upperneck 3.87044 -0.7305 2.36357
head 3.26759 -0.139324 -0.500093
lclavicle -1.02579e-14 -6.18819e-14 0
lhumerus -59.4122 -47.0382 116.539
lradius 54.0365 0 0
lwrist 25.3074 0 0
lhand 40.6286 29.616 0
lfingers 7.12502 0 0
lthumb 62.9084 39.883 0
rclavicle -1.02579e-14 -6.18819e-14 0
rhumerus -2.39786 -26.8293 -14.1427
rradius 53.4974 0 0
rwrist -21.7165 0 0
rhand -38.2677 -60.0739 0
rfingers 7.12502 0 0
rthumb -11.2974 -450.379 0
208
root 4.85043 15.0417 -25.4621 7.22537 -1.32442 5.53823
lfemur 7.34327 -1.52338 0.70309
ltibia 5.85381 0 0
lfoot -36.0484 -11.7671 0
ltoes 46.8633 0 0
rfemur -31.6544 -19.9699 -8.40074
rtibia 51.0591 0 0
rfoot -26.6142 18.0539 0
rtoes 60.2465 0 0
lowerback -2.9552 -1.4096 -0.444934
upperback -0.695523 -1.80194 -7.59381
thorax 0.709503 -0.913093 -7.74683
lowerneck -11.3924 0.310711 6.94198
upperneck 3.86208 -0.763982 2.35466
head 3.26326 -0.157039 -0.498079
lclavicle -1.03181e-14 -6.14744e-14 0
lhumerus -59.3897 -46.9654 116.567
lradius 54.0808 0 0
lwrist 25.2648 0 0
lhand 40.4428 29.527 0
lfingers 7.12502 0 0
lthumb 62.7386 39.8833 0
rclavicle -1.03181e-14 -6.14744e-14 0
rhumerus -2.59245 -26.776 -14.3994
rradius 53.5369 0 0
rwrist -21.5256 0 0
rhand -38.1534 -59.896 0
rfingers 7.12502 0 0
rthumb -11.187 -452.056 0
209
root 4.8651 15.0495 -25.4642 7.23803 -0.975054 5.44841
lfemur 6.9459 -1.28516 0.580224
ltibia 6.20692 0 0
lfoot -35.8983 -11.6628 0
ltoes 46.7542 0 0
rfemur -31.4685 -19.773 -8.30145
rtibia 50.956 0 0
rfoot -26.6968 17.6428 0
rtoes 60.1997 0 0
lowerback -2.92901 -1.42291 -0.426457
upperback -0.701125 -1.81974 -7.50104
thorax 0.692069 -0.921835 -7.65984
lowerneck -11.3785 0.262351 6.88088
upperneck 3.8485 -0.818401 2.34019
head 3.25624 -0.185833 -0.494804
lclavicle -1.04158e-14 -6.0812e-14 0
lhumerus -59.3533 -46.8472 116.614
lradius 54.1528 0 0
lwrist 25.1956 0 0
lhand 40.1409 29.3823 0
lfingers 7.12502 0 0
lthumb 62.4628 39.8838 0
rclavicle -1.04158e-14 -6.0812e-14 0
rhumerus -2.90872 -26.6893 -14.8167
rradius 53.6012 0 0
rwrist -21.2155 0 0
rhand -37.9675 -59.6068 0
rfingers 7.12502 0 0
rthumb -11.0075 -454.781 0
210
root 4.88511 15.0602 -25.4671 7.2553 -0.498538 5.3259
lfemur 6.40391 -0.960229 0.41264
ltibia 6.68854 0 0
lfoot -35.6934 -11.5206 0
ltoes 46.6055 0 0
rfemur -31.2149 -19.5045 -8.16601
rtibia 50.8154 0 0
rfoot -26.8095 17.0822 0
rtoes 60.1359 0 0
lowerback -2.8933 -1.44107 -0.401255
upperback -0.708766 -1.84402 -7.37451
thorax 0.668291 -0.933759 -7.54119
lowerneck -11.3596 0.196389 6.79754
upperneck 3.82998 -0.892626 2.32045
head 3.24665 -0.225105 -0.490337
lclavicle -1.05492e-14 -5.99086e-14 0
lhumerus -59.3036 -46.6858 116.677
lradius 54.2509 0 0
lwrist 25.1013 0 0
lhand 39.7292 29.1849 0
lfingers 7.12502 0 0
lthumb 62.0866 39.8845 0
rclavicle -1.05492e-14 -5.99086e-14 0
rhumerus -3.34011 -26.5711 -15.3858
rradius 53.6889 0 0
rwrist -20.7924 0 0
rhand -37.714 -59.2123 0
rfingers 7.12502 0 0
rthumb -10.7628 -458.498 0
